<?xml version="1.0" standalone="no"?>
<!DOCTYPE svg PUBLIC "-//W3C//DTD SVG 20010904//EN"
 "http://www.w3.org/TR/2001/REC-SVG-20010904/DTD/svg10.dtd">
<svg version="1.0" xmlns="http://www.w3.org/2000/svg"
 width="300.000000pt" height="279.000000pt" viewBox="0 0 300.000000 279.000000"
 preserveAspectRatio="xMidYMid meet">
<metadata>
Created by potrace 1.10, written by Peter Selinger 2001-2011
</metadata>
<g transform="translate(0.000000,279.000000) scale(0.100000,-0.100000)"
fill="#000000" stroke="none">
<path d="M379 2095 c-60 -33 -59 -18 -59 -764 l0 -681 1190 0 1190 0 0 681 c0
749 1 732 -61 764 -42 22 -2220 22 -2260 0z m2248 -49 l28 -24 3 -652 c2 -479
-1 -656 -9 -666 -17 -21 -2261 -21 -2278 0 -8 10 -11 187 -9 666 l3 652 28 24
28 24 1089 0 1089 0 28 -24z"/>
<path d="M544 1910 c-12 -4 -31 -21 -43 -36 -21 -26 -21 -31 -21 -515 l0 -489
29 -32 29 -33 972 0 972 0 29 33 29 32 0 490 0 490 -29 32 -29 33 -959 2
c-527 1 -968 -2 -979 -7z m1937 -40 c18 -10 19 -26 19 -500 0 -268 -3 -495 -6
-504 -6 -14 -102 -16 -984 -16 -882 0 -978 2 -984 16 -3 9 -6 236 -6 504 0
455 1 490 18 499 24 14 1916 15 1943 1z"/>
<path d="M1051 1706 c-12 -15 -18 -667 -6 -686 9 -14 922 -13 930 0 12 20 6
671 -6 686 -17 21 -901 21 -918 0z m452 -35 c5 -1 -1 -14 -12 -29 -14 -21 -29
-81 -51 -213 -40 -237 -37 -228 -63 -191 -11 16 -47 46 -79 67 -36 23 -58 44
-58 56 0 11 22 33 57 56 101 68 117 117 51 166 -36 27 -58 19 -173 -57 l-95
-64 0 104 0 103 133 3 c110 3 256 2 290 -1z m437 -106 l0 -104 -77 53 c-88 60
-135 86 -157 86 -8 0 -28 -12 -45 -26 l-31 -26 0 29 c0 15 -9 42 -20 60 l-19
32 37 3 c20 2 99 2 175 0 l137 -3 0 -104z m-360 60 c19 -23 -66 -522 -92 -536
-21 -11 -58 4 -58 24 0 36 84 504 92 515 14 16 43 15 58 -3z m-236 -87 c16
-27 -1 -47 -83 -96 -68 -42 -71 -45 -71 -82 0 -37 2 -39 81 -85 70 -42 80 -51
77 -73 -6 -52 -28 -49 -137 18 l-101 63 0 77 0 78 93 60 c94 62 122 70 141 40z
m470 -39 l96 -61 0 -78 0 -77 -101 -63 c-108 -68 -131 -71 -137 -18 -3 22 7
31 77 73 79 46 81 48 81 85 0 37 -3 40 -62 76 -100 59 -117 81 -86 112 20 20
32 15 132 -49z m-88 -84 c69 -44 70 -63 4 -105 -57 -37 -100 -83 -100 -109 0
-21 43 -70 62 -72 7 -1 22 0 32 1 21 2 134 69 181 108 l30 25 3 -93 c1 -52 1
-99 -2 -107 -4 -10 -50 -13 -215 -13 l-210 0 19 33 c12 20 30 101 50 217 17
102 33 192 36 200 4 11 12 6 30 -18 14 -18 50 -48 80 -67z m-601 -185 c11 -9
50 -35 86 -57 88 -55 110 -57 157 -18 l30 25 -4 -30 c-4 -20 2 -42 16 -65 l22
-35 -176 0 -176 0 0 106 c0 111 0 112 45 74z"/>
<path d="M320 538 c0 -18 9 -48 20 -66 37 -61 45 -62 514 -62 l424 0 -10 -42
c-14 -63 -41 -100 -105 -145 -82 -58 -97 -76 -83 -102 11 -21 15 -21 430 -21
415 0 419 0 430 21 14 26 -1 44 -83 102 -64 45 -91 82 -105 145 l-10 42 424 0
c469 0 477 1 514 62 11 18 20 48 20 66 l0 32 -1190 0 -1190 0 0 -32z m2325
-18 c11 -19 -15 -49 -53 -60 -23 -6 -192 -10 -439 -10 -401 0 -402 0 -423 -22
-48 -52 -1 -161 101 -235 27 -19 49 -39 49 -44 0 -5 -156 -9 -370 -9 -222 0
-370 4 -370 9 0 5 15 20 33 32 60 41 89 74 113 124 30 63 30 96 1 123 -22 21
-30 21 -449 24 -423 3 -428 3 -449 25 -13 12 -19 28 -16 37 6 14 115 16 1136
16 727 0 1132 -3 1136 -10z"/>
</g>
</svg>
